{"accessors" : [{"bufferView" : 0, "byteOffset" : 0, "componentType" : 5123, "count" : 324, "type" : "SCALAR", "max" : [107], "min" : [0]}, {"bufferView" : 1, "byteOffset" : 0, "componentType" : 5126, "count" : 108, "type" : "VEC3", "max" : [6.058899879455566, 2.348900079727173, 0.5], "min" : [-6.058899879455566, -2.348900079727173, -0.5], "name" : "POSITION"}, {"bufferView" : 1, "byteOffset" : 12, "componentType" : 5126, "count" : 108, "type" : "VEC2", "max" : [0.9869999885559082, 0.989300012588501], "min" : [0.006200000178068876, 0.009199976921081543], "name" : "TEXCOORD_0"}, {"bufferView" : 1, "byteOffset" : 20, "componentType" : 5126, "count" : 108, "type" : "VEC3", "max" : [0.9308139085769653, 0.9998632669448853, 1.0000044107437134], "min" : [-1.0000044107437134, -0.9998632669448853, -1.0000044107437134], "name" : "NORMAL"}], "asset" : {"generator" : "Aspose.3D 24.2.0", "version" : "2.0"}, "buffers" : [{"uri" : "buffer.bin", "byteLength" : 4112}], "bufferViews" : [{"buffer" : 0, "byteOffset" : 0, "byteLength" : 648, "target" : 34963}, {"buffer" : 0, "byteOffset" : 652, "byteLength" : 3456, "byteStride" : 32, "target" : 34962}], "meshes" : [{"primitives" : [{"attributes" : {"POSITION" : 1, "TEXCOORD_0" : 2, "NORMAL" : 3}, "indices" : 0, "mode" : 4}], "name" : ""}], "nodes" : [{"mesh" : 0, "name" : "Arrow5"}], "scene" : 0, "scenes" : [{"nodes" : [0]}]}